<svg width="185" height="217" viewBox="0 0 185 217" fill="none" xmlns="http://www.w3.org/2000/svg">
<path d="M37.6335 204C51.2457 149.475 55.7693 93.1137 71.4116 38.9855C74.1523 29.502 77.2536 20.0802 81.8623 11.3274C85.1746 5.03668 90.5296 22.7905 93.2461 29.3612C108.716 66.7791 129.053 106.462 134.676 147.002C135.057 149.752 136.036 152.508 136.355 155.224C137.24 162.755 115.796 153.878 115.641 153.823C88.567 144.277 62.6883 131.007 38.38 115.793C28.1158 109.369 24.6453 106.679 15.799 100.095C13.6948 98.529 8.22867 95.3825 10.5736 94.2084C13.8377 92.5741 30.1944 92.2492 30.262 92.2461C41.9261 91.7152 50.0016 91.6902 61.7074 90.938C94.8168 88.8104 127.975 84.5324 160.616 78.6039C163.738 78.0369 168.449 77.0295 171.813 76.5483C172.86 76.3985 174.875 75.4951 174.986 76.5483C175.223 78.8033 172.481 80.3644 170.88 81.9678C156.993 95.8742 140.957 107.747 125.531 119.811C100.592 139.315 74.3066 158.008 52.1898 180.827C45.8485 187.37 40.8909 194.957 34.2743 200.636" stroke="#68B0AB" stroke-width="20" stroke-linecap="square"/>
</svg>
