<svg width="175" height="206" viewBox="0 0 175 206" fill="none" xmlns="http://www.w3.org/2000/svg">
<path d="M32.6335 199C46.2457 144.475 50.7693 88.1137 66.4116 33.9855C69.1523 24.502 72.2536 15.0802 76.8623 6.32737C80.1746 0.0366834 85.5296 17.7905 88.2461 24.3612C103.716 61.7791 124.053 101.462 129.676 142.002C130.057 144.752 131.036 147.508 131.355 150.224C132.24 157.755 110.796 148.878 110.641 148.823C83.567 139.277 57.6883 126.007 33.38 110.793C23.1158 104.369 19.6453 101.679 10.799 95.0951C8.69478 93.529 3.22867 90.3825 5.57362 89.2084C8.83767 87.5741 25.1945 87.2492 25.262 87.2461C36.9261 86.7152 45.0016 86.6902 56.7074 85.938C89.8168 83.8104 122.975 79.5324 155.616 73.604C158.738 73.0369 163.449 72.0295 166.813 71.5483C167.86 71.3985 169.875 70.4951 169.986 71.5483C170.223 73.8033 167.481 75.3644 165.88 76.9678C151.993 90.8742 135.957 102.747 120.531 114.811C95.5923 134.315 69.3066 153.008 47.1898 175.827C40.8485 182.37 35.8909 189.957 29.2743 195.636" stroke="#68B0AB" stroke-width="10" stroke-linecap="square"/>
</svg>
