<svg width="155" height="262" viewBox="0 0 155 262" fill="none" xmlns="http://www.w3.org/2000/svg">
<path d="M60.3207 252.76C82.6649 182.72 96.488 109.828 108.134 37.3334C108.944 32.2919 109.158 9.92455 113.258 5.65043C115.718 3.085 116.5 12.017 117.578 15.4068C125.061 38.9485 131.416 62.8647 138.297 86.5852C151.897 133.47 163.163 180.591 175.28 227.844C177.425 236.205 175.138 236.499 166.494 233.302C130.86 220.122 96.4752 197.196 66.4114 174.371C45.9796 158.859 23.628 141.244 7.61809 120.859C-5.7297 103.863 48.1792 116.976 49.4443 117.151C88.224 122.51 127.086 127.077 166.256 128.116C188.859 128.715 211.415 125.343 233.88 125.81C242.167 125.982 222.148 137.644 215.415 142.483C181.44 166.903 145.199 187.381 109.137 208.475C89.2575 220.104 68.9452 231.46 50.2387 244.957C45.0684 248.687 40.6826 252.194 34.8701 254.617" stroke="#68B0AB" stroke-width="10" stroke-linecap="square"/>
</svg>
