<svg width="258" height="249" viewBox="0 0 258 249" fill="none" xmlns="http://www.w3.org/2000/svg">
<path d="M37.1793 189.3C53.9416 153.132 73.5115 118.646 92.4172 83.5783C105.36 59.5701 115.438 34.5869 127.585 10.2837C130.675 4.09989 129.42 22.2558 129.45 22.455C136.305 68.2822 151.722 114.669 166.127 158.561C174.656 184.55 185.031 209.799 195.256 235.143C200.563 248.297 186.017 230.833 183.267 228.391C122.005 173.978 69.683 111.622 16.7537 49.463C14.808 47.178 3.51349 38.8122 12.3133 41.5561C54.9166 54.8402 99.4403 60.9451 143.57 66.6983C178.402 71.2394 214.135 72.7572 248.717 79.0474C249.773 79.2393 247.598 80.9891 246.675 81.535C213.921 100.897 181.321 120.218 148.01 138.66C110.16 159.616 71.0921 179.606 36.8241 206.269C32.8887 209.331 28.3126 214.887 22.7926 214.887" stroke="#68B0AB" stroke-width="18" stroke-linecap="square"/>
</svg>
