<svg width="159" height="250" viewBox="0 0 159 250" fill="none" xmlns="http://www.w3.org/2000/svg">
<path d="M62.1261 225.662C37.7602 156.055 32.0556 81.769 12.2694 10.9887C11.9414 9.81518 8.44554 3.52191 11.367 6.70512C28.5663 25.4451 45.4451 44.4585 63.5015 62.3939C85.1491 83.8966 107.408 105.06 130.138 125.423C136.385 131.02 148.716 137.605 152.984 145.377C153.834 146.925 152.724 146.614 150.66 146.856C144.704 147.556 131.137 147.879 127.196 148.014C91.0822 149.25 54.8852 150.939 18.7428 150.529C14.4194 150.48 4.22366 153.965 5.78564 149.933C6.47194 148.162 8.8361 147.658 10.4631 146.677C24.518 138.206 37.9824 129.09 51.4259 119.652C78.2983 100.786 105.086 81.6838 131.27 61.8676C136.991 57.5375 137.481 57.0953 142.024 53.4062C142.2 53.2635 145.355 50.1693 146.293 50.4821C148.463 51.2063 86.9181 217.958 71.1268 242.757" stroke="#AC9FBB" stroke-width="10" stroke-linecap="square"/>
</svg>
