<svg width="167" height="260" viewBox="0 0 167 260" fill="none" xmlns="http://www.w3.org/2000/svg">
<path d="M66.1261 229.662C41.7602 160.055 36.0556 85.769 16.2694 14.9887C15.9414 13.8152 12.4455 7.52191 15.367 10.7051C32.5663 29.4451 49.4451 48.4585 67.5015 66.3939C89.1491 87.8966 111.408 109.06 134.138 129.423C140.385 135.02 152.716 141.605 156.984 149.377C157.834 150.925 156.724 150.614 154.66 150.856C148.704 151.556 135.137 151.879 131.196 152.014C95.0822 153.25 58.8852 154.939 22.7428 154.529C18.4194 154.48 8.22366 157.965 9.78564 153.933C10.4719 152.162 12.8361 151.658 14.4631 150.677C28.518 142.206 41.9824 133.09 55.4259 123.652C82.2983 104.786 109.086 85.6838 135.27 65.8676C140.991 61.5375 141.481 61.0953 146.024 57.4062C146.2 57.2635 149.355 54.1693 150.293 54.4821C152.463 55.2063 90.9181 221.958 75.1268 246.757" stroke="#68B0AB" stroke-width="18" stroke-linecap="square"/>
</svg>
