<svg width="250" height="241" viewBox="0 0 250 241" fill="none" xmlns="http://www.w3.org/2000/svg">
<path d="M33.1793 185.3C49.9416 149.132 69.5115 114.646 88.4172 79.5783C101.36 55.5701 111.438 30.5869 123.585 6.28367C126.675 0.099892 125.42 18.2558 125.45 18.455C132.305 64.2822 147.722 110.669 162.127 154.561C170.656 180.55 181.031 205.799 191.256 231.143C196.563 244.297 182.017 226.833 179.267 224.391C118.005 169.978 65.683 107.622 12.7537 45.463C10.808 43.178 -0.486508 34.8122 8.31334 37.5561C50.9166 50.8402 95.4403 56.9451 139.57 62.6983C174.402 67.2394 210.135 68.7572 244.717 75.0474C245.773 75.2393 243.598 76.9891 242.675 77.535C209.921 96.897 177.321 116.218 144.01 134.66C106.16 155.616 67.0921 175.606 32.8241 202.269C28.8887 205.331 24.3126 210.887 18.7926 210.887" stroke="#AC9FBB" stroke-width="10" stroke-linecap="square"/>
</svg>
