<svg width="159" height="271" viewBox="0 0 159 271" fill="none" xmlns="http://www.w3.org/2000/svg">
<path d="M64.3207 256.76C86.6649 186.72 100.488 113.828 112.134 41.3334C112.944 36.2919 113.158 13.9246 117.258 9.65043C119.718 7.085 120.5 16.017 121.578 19.4068C129.061 42.9485 135.416 66.8647 142.297 90.5852C155.897 137.47 167.163 184.591 179.28 231.844C181.425 240.205 179.138 240.499 170.494 237.302C134.86 224.122 100.475 201.196 70.4114 178.371C49.9796 162.859 27.628 145.244 11.6181 124.859C-1.7297 107.863 52.1792 120.976 53.4443 121.151C92.224 126.51 131.086 131.077 170.256 132.116C192.859 132.715 215.415 129.343 237.88 129.81C246.167 129.982 226.148 141.644 219.415 146.483C185.44 170.903 149.199 191.381 113.137 212.475C93.2575 224.104 72.9452 235.46 54.2387 248.957C49.0684 252.687 44.6826 256.194 38.8701 258.617" stroke="#68B0AB" stroke-width="18" stroke-linecap="square"/>
</svg>
